<svg xmlns="http://www.w3.org/2000/svg" width="33.18" height="27" viewBox="0 0 33.18 27">
  <path id="Icon_ionic-logo-twitter" data-name="Icon ionic-logo-twitter" d="M1.413,7.7A13.763,13.763,0,0,0,5.323,8.775a6.831,6.831,0,0,1-3-3.769A13.527,13.527,0,0,0,6.652,6.659a6.805,6.805,0,0,1,11.777,4.655,6.665,6.665,0,0,1-.176,1.554A19.292,19.292,0,0,0,32.288,5.745a6.821,6.821,0,0,1-2.116,9.1,6.649,6.649,0,0,0,3.094-.851v.084a6.813,6.813,0,0,1-5.463,6.68A6.852,6.852,0,0,0,29.595,21a6.422,6.422,0,0,0,1.28-.127A6.818,6.818,0,0,1,24.511,25.6a13.648,13.648,0,0,0,8.459,2.918,13.8,13.8,0,0,0,1.624-.1,19.028,19.028,0,0,1-10.42,3.08C11.637,31.5,4.788,21.115,4.788,12.108c0-.3.007-.591.021-.879A13.858,13.858,0,0,1,1.413,7.7Z" transform="translate(-1.413 -4.5)" fill="#96bad7"/>
</svg>
