<?xml version="1.0" standalone="no"?>
<!DOCTYPE svg PUBLIC "-//W3C//DTD SVG 20010904//EN"
 "http://www.w3.org/TR/2001/REC-SVG-20010904/DTD/svg10.dtd">
<svg version="1.0" xmlns="http://www.w3.org/2000/svg"
 width="800.000000pt" height="800.000000pt" viewBox="0 0 800.000000 800.000000"
 preserveAspectRatio="xMidYMid meet">
<metadata>
Created by potrace 1.14, written by Peter Selinger 2001-2017
</metadata>
<g transform="translate(0.000000,800.000000) scale(0.100000,-0.100000)"
fill="#000000" stroke="none">
<path d="M1876 5819 c5 -8 -3 -10 -25 -7 -17 2 -31 1 -31 -4 0 -4 -5 -8 -11
-8 -5 0 -8 4 -5 8 3 5 -1 9 -9 9 -8 0 -12 -4 -9 -9 3 -4 2 -8 -3 -9 -4 0 -16
-2 -26 -4 -9 -2 -15 1 -11 6 7 12 -3 11 -28 -2 -11 -6 -18 -7 -15 -2 4 5 0 10
-8 10 -8 0 -12 -4 -9 -9 3 -4 -5 -8 -18 -8 -13 0 -30 -6 -37 -12 -11 -11 -12
-10 -6 2 8 13 7 13 -8 1 -9 -7 -17 -10 -17 -6 0 3 -12 -3 -26 -14 -15 -11 -30
-19 -34 -16 -4 3 -13 -2 -20 -10 -7 -8 -17 -12 -23 -8 -6 4 -8 0 -4 -11 4 -10
3 -15 -3 -11 -6 3 -10 0 -10 -7 0 -9 -3 -9 -10 2 -9 15 -11 14 -14 -12 -1 -7
-7 -12 -13 -11 -6 1 -14 -11 -18 -27 -4 -18 -11 -28 -18 -24 -7 3 -3 -2 7 -10
12 -9 14 -16 7 -16 -9 0 -8 -5 3 -16 21 -21 20 -30 -1 -13 -10 7 -7 0 7 -15
14 -16 18 -25 10 -21 -13 8 -13 7 -1 -8 11 -14 11 -17 0 -17 -11 0 -11 -2 0
-9 8 -5 15 -23 16 -40 1 -17 4 -34 8 -37 3 -4 2 -15 -3 -25 -7 -12 -7 -20 0
-24 5 -3 10 -13 10 -21 0 -10 -5 -12 -12 -8 -10 6 -10 5 -1 -7 6 -8 12 -32 12
-54 0 -22 2 -53 4 -68 3 -20 1 -27 -9 -23 -8 3 -11 0 -7 -9 3 -8 10 -12 16 -8
6 4 7 1 2 -7 -5 -8 -9 -34 -10 -59 0 -25 -4 -52 -9 -60 -6 -10 -5 -12 2 -7 13
8 17 -6 5 -18 -9 -9 -11 -46 -2 -40 9 5 6 -23 -4 -32 -3 -4 -1 -16 5 -27 8
-16 8 -19 -5 -14 -13 5 -14 1 -7 -24 6 -20 5 -29 -3 -29 -7 0 -6 -4 3 -10 12
-8 12 -10 -5 -11 -11 0 -14 -3 -7 -6 6 -2 12 -15 12 -28 0 -13 -6 -26 -12 -28
-10 -4 -10 -6 0 -6 6 -1 12 -8 12 -16 0 -8 -6 -15 -12 -15 -8 0 -9 -3 -3 -8
16 -11 17 -95 2 -86 -7 4 -3 -2 7 -14 14 -17 16 -22 5 -22 -11 0 -11 -2 1 -10
12 -8 12 -10 -5 -10 -13 0 -16 -3 -8 -8 7 -4 13 -22 15 -40 1 -18 7 -32 12
-32 5 0 1 -7 -10 -16 -10 -8 -14 -13 -8 -10 7 3 15 -1 18 -10 9 -23 7 -31 -4
-14 -7 12 -9 10 -7 -7 0 -12 5 -19 9 -16 5 2 6 -8 3 -24 -5 -22 -4 -25 5 -13
9 12 10 10 6 -12 -4 -19 -2 -28 6 -28 10 0 10 -2 0 -9 -11 -7 -11 -9 2 -14 9
-4 16 -11 16 -17 0 -6 -4 -8 -10 -5 -6 3 -7 -1 -4 -9 3 -9 10 -16 15 -16 5 0
9 -9 9 -21 0 -13 4 -18 13 -13 7 5 6 0 -3 -11 -13 -17 -13 -18 0 -13 12 4 15
-2 14 -29 -2 -27 1 -32 12 -22 10 8 12 7 9 -10 -2 -12 0 -21 6 -21 5 0 9 -7 9
-15 0 -8 4 -15 10 -15 5 0 7 -7 4 -15 -4 -11 -2 -13 9 -9 8 3 18 0 23 -7 5 -8
3 -10 -7 -4 -8 4 -5 -1 6 -12 11 -11 24 -18 29 -15 5 3 6 0 2 -6 -9 -15 44
-74 61 -68 8 3 11 1 8 -4 -3 -6 -1 -10 5 -10 6 0 8 -5 4 -12 -6 -10 -5 -10 7
-1 11 9 18 8 31 -1 10 -7 14 -16 10 -20 -4 -5 6 -6 22 -4 20 2 31 -2 33 -12 4
-13 3 -13 -6 0 -9 12 -11 10 -11 -12 0 -19 -5 -28 -16 -28 -9 0 -12 -5 -8 -12
5 -8 0 -7 -11 2 -11 9 -16 10 -11 3 4 -7 2 -21 -4 -30 -11 -17 -11 -17 -6 0 3
11 2 15 -4 12 -6 -3 -10 -13 -10 -21 0 -8 -8 -14 -17 -15 -10 0 -13 -3 -6 -6
10 -3 10 -7 0 -18 -7 -7 -15 -11 -20 -8 -4 2 -7 1 -6 -4 4 -22 -2 -35 -14 -30
-9 3 -13 -3 -13 -17 1 -11 -4 -20 -10 -19 -7 1 -9 -8 -6 -22 2 -15 0 -25 -7
-25 -7 0 -9 5 -5 12 4 6 3 8 -4 4 -6 -3 -9 -16 -7 -27 3 -15 0 -19 -11 -15 -8
3 -12 2 -9 -3 3 -5 1 -13 -5 -16 -8 -5 -8 -11 0 -20 9 -10 6 -16 -10 -25 -11
-6 -18 -15 -15 -21 4 -5 -2 -9 -12 -9 -14 0 -15 -2 -5 -9 11 -7 11 -10 0 -22
-7 -8 -13 -18 -14 -24 -1 -31 -17 -64 -28 -58 -6 4 -5 -1 3 -10 12 -15 9 -21
-11 -18 -4 0 -5 -5 -2 -13 3 -8 1 -17 -5 -21 -6 -3 -11 -12 -11 -18 0 -7 4 -6
10 3 5 8 10 10 10 4 0 -6 -6 -17 -14 -24 -8 -6 -12 -18 -9 -27 3 -8 0 -19 -7
-23 -11 -7 -11 -11 -1 -23 9 -12 9 -17 0 -23 -8 -5 -9 -3 -4 6 6 9 4 11 -4 5
-9 -5 -10 -10 -2 -18 7 -7 5 -15 -7 -24 -9 -8 -12 -12 -6 -9 7 3 15 -1 18 -10
3 -8 2 -13 -3 -10 -5 3 -11 -1 -15 -9 -3 -8 -2 -15 3 -15 10 0 8 -31 -4 -49
-5 -9 -4 -12 2 -8 5 3 10 -1 10 -9 0 -8 -6 -13 -13 -10 -8 3 -11 0 -7 -9 5
-15 -34 -37 -49 -28 -5 2 -8 -3 -8 -12 0 -9 -4 -14 -9 -10 -6 3 -25 -3 -45
-14 -25 -14 -36 -17 -40 -8 -2 7 -5 5 -5 -5 -1 -9 -6 -20 -13 -24 -8 -5 -9 -2
-4 11 6 18 6 18 -15 -1 -15 -12 -20 -14 -15 -4 7 13 6 13 -6 0 -7 -8 -18 -16
-23 -17 -6 -1 -19 -5 -29 -9 -15 -6 -18 -4 -12 7 4 8 0 5 -8 -5 -12 -15 -16
-16 -16 -5 0 8 -3 10 -8 4 -8 -12 -51 -13 -69 -2 -6 4 -15 2 -19 -4 -5 -8 -3
-9 6 -4 9 5 11 4 6 -4 -4 -6 -13 -8 -19 -4 -7 4 -23 9 -35 11 -17 2 -22 -1
-16 -10 4 -7 -3 -4 -16 7 -13 11 -20 15 -17 9 4 -7 0 -15 -9 -18 -12 -5 -15
-2 -10 10 6 15 4 15 -11 3 -10 -8 -24 -21 -31 -29 -8 -8 -11 -9 -7 -3 4 8 1
11 -9 7 -9 -3 -15 -9 -14 -12 2 -21 -3 -32 -14 -26 -7 5 -8 3 -2 -7 5 -8 7
-21 6 -30 -2 -9 4 -19 13 -23 13 -5 14 -10 4 -27 -8 -15 -8 -19 0 -15 6 4 11
2 11 -4 0 -6 5 -8 12 -4 8 5 9 2 5 -9 -3 -9 -3 -16 1 -16 19 3 25 -2 12 -11
-12 -8 -11 -10 8 -10 12 0 22 -4 22 -9 0 -5 11 -12 25 -15 14 -4 23 -11 20
-16 -3 -6 -2 -10 3 -10 5 0 12 -17 15 -37 11 -71 13 -77 45 -140 7 -13 12 -30
12 -38 0 -8 3 -15 8 -15 4 0 23 -27 42 -60 19 -33 40 -60 46 -60 7 0 15 -7 18
-16 3 -8 10 -12 16 -9 5 3 10 -3 10 -14 0 -12 5 -21 11 -21 7 0 9 -10 7 -25
-3 -14 -1 -28 5 -32 6 -3 7 -1 3 5 -4 7 -2 12 3 12 6 0 11 -6 11 -13 0 -17 47
-40 62 -31 6 4 8 3 5 -2 -3 -6 -2 -16 4 -24 7 -12 9 -11 9 5 0 19 2 18 19 -4
12 -16 21 -20 25 -12 4 6 12 11 17 11 6 0 7 -5 3 -12 -4 -7 -3 -8 5 -4 6 4 19
2 27 -5 12 -10 13 -9 8 6 -6 15 -4 16 13 7 11 -6 23 -9 26 -6 3 3 11 3 17 -1
7 -4 0 -15 -17 -28 -15 -12 -34 -28 -41 -37 -12 -13 -13 -13 -8 4 6 16 4 17
-9 6 -8 -7 -12 -17 -9 -22 3 -5 -4 -12 -16 -15 -12 -3 -19 -11 -16 -18 3 -8
-2 -16 -10 -19 -10 -4 -12 -2 -8 6 4 7 3 8 -5 4 -6 -4 -9 -11 -7 -15 3 -4 -4
-20 -15 -37 -10 -16 -19 -25 -19 -20 0 5 -9 1 -20 -9 -14 -13 -17 -22 -10 -29
7 -7 4 -16 -12 -29 -13 -10 -17 -16 -11 -12 9 4 11 1 7 -9 -3 -9 -10 -13 -15
-10 -5 3 -6 -2 -3 -10 4 -9 1 -16 -6 -16 -9 0 -9 -4 1 -16 11 -14 10 -18 -6
-30 -10 -8 -15 -14 -11 -14 5 0 3 -6 -3 -14 -8 -10 -9 -16 -1 -21 6 -4 7 -13
1 -23 -4 -9 -6 -23 -3 -31 3 -9 0 -11 -8 -6 -9 5 -10 3 -3 -11 5 -11 8 -31 7
-47 -2 -17 1 -25 8 -21 6 4 6 -1 -1 -14 -8 -15 -8 -23 0 -28 6 -3 8 -15 6 -26
-3 -11 0 -21 9 -25 11 -4 12 -8 3 -20 -10 -11 -9 -13 2 -11 8 2 13 -3 12 -10
-2 -6 2 -12 8 -12 8 0 7 -6 -2 -17 -8 -9 -9 -14 -3 -10 14 8 38 -18 30 -32 -4
-5 -1 -13 5 -17 8 -5 9 -3 4 7 -6 10 -5 11 4 3 7 -6 13 -20 14 -32 0 -11 4
-20 7 -20 27 2 32 -2 19 -19 -11 -13 -11 -15 -1 -9 15 9 52 -20 52 -40 0 -7 5
-16 12 -20 7 -5 8 -2 3 7 -4 8 1 5 12 -6 11 -11 18 -24 15 -29 -2 -4 5 -5 17
-1 16 5 20 3 15 -9 -4 -12 0 -16 16 -16 11 0 18 -5 15 -10 -3 -6 1 -10 10 -10
10 0 13 -5 9 -12 -5 -8 0 -7 11 2 11 9 16 10 11 3 -4 -8 -1 -13 8 -13 9 0 16
-5 16 -12 0 -6 3 -8 7 -5 3 4 15 -1 26 -10 15 -13 18 -14 12 -3 -8 13 -6 13 8
1 9 -7 14 -18 10 -25 -4 -6 1 -5 10 3 12 9 17 10 17 2 0 -7 4 -10 9 -6 6 3 14
-3 20 -12 8 -14 10 -15 11 -3 0 13 1 13 10 0 5 -8 10 -11 10 -6 0 5 8 2 17 -5
9 -8 14 -9 10 -2 -5 7 0 9 13 6 11 -3 20 -9 20 -14 0 -5 14 -7 30 -5 17 2 33
-1 37 -7 4 -6 1 -7 -7 -2 -9 5 -11 4 -6 -4 4 -6 13 -8 19 -4 18 11 37 12 37 2
0 -5 11 -7 25 -3 17 4 25 2 25 -7 0 -11 3 -11 10 1 7 12 10 12 10 1 0 -9 8
-11 26 -7 18 5 24 3 18 -5 -5 -8 -3 -9 7 -3 8 5 22 7 33 5 10 -1 15 2 12 7 -4
6 2 8 14 5 11 -3 17 -9 14 -14 -3 -5 0 -9 5 -9 6 0 11 5 11 11 0 6 9 9 20 6
11 -3 20 -1 20 5 0 5 6 6 13 1 17 -11 38 -13 32 -3 -3 4 2 11 11 14 8 3 12 2
9 -4 -3 -5 3 -8 14 -7 11 0 17 5 14 11 -4 5 3 7 15 4 12 -4 22 -3 22 2 0 4 12
5 26 2 19 -3 25 -1 20 7 -9 14 16 10 26 -4 5 -6 8 -3 8 7 0 11 5 15 15 12 8
-4 15 -1 15 6 0 9 4 9 17 -1 14 -12 16 -12 8 0 -6 11 -3 13 13 9 13 -4 20 -2
19 6 -1 6 6 10 16 10 10 -1 17 5 17 15 0 14 2 14 10 1 8 -12 10 -12 15 2 4 10
15 15 26 13 11 -2 17 0 14 6 -4 5 1 9 9 9 9 0 16 5 16 11 0 5 4 8 9 5 5 -3 11
1 15 9 3 8 12 15 21 15 8 0 15 5 15 11 0 6 7 9 15 5 8 -3 14 -2 14 2 -3 20 2
33 11 27 6 -3 13 1 16 9 3 9 12 16 20 16 8 0 13 6 11 13 -1 6 6 11 15 11 10
-1 14 4 11 12 -3 9 2 14 12 14 11 0 15 5 11 15 -3 8 -2 15 3 15 4 0 18 9 31
20 13 11 20 20 16 20 -4 0 1 12 12 28 11 15 25 45 33 67 19 57 32 70 58 56 11
-7 21 -9 21 -6 0 4 7 -1 16 -10 12 -12 19 -13 30 -4 11 9 15 8 20 -4 3 -9 14
-14 25 -12 10 2 23 -4 29 -13 5 -9 10 -12 10 -6 0 15 31 13 48 -4 8 -7 18 -10
23 -7 5 4 9 1 9 -4 0 -6 5 -11 11 -11 5 0 7 6 3 13 -6 9 -5 9 8 0 8 -7 17 -11
20 -8 3 3 11 -1 18 -10 9 -11 17 -12 32 -4 15 8 19 8 14 0 -6 -9 36 -17 67
-12 4 0 7 -6 7 -15 0 -8 5 -12 10 -9 6 4 7 12 3 18 -3 7 3 3 15 -7 12 -11 22
-16 22 -11 0 4 8 1 17 -6 14 -12 16 -12 9 1 -4 8 0 6 8 -4 16 -20 16 -20 16 0
1 17 2 17 10 2 6 -10 18 -14 30 -11 12 3 20 0 20 -7 0 -7 8 -10 20 -7 10 3 27
-1 37 -8 13 -9 22 -10 30 -3 9 7 13 7 13 0 0 -5 12 -10 28 -11 15 0 37 0 50
-1 16 0 21 -4 16 -13 -5 -8 -2 -7 9 2 10 7 17 9 17 3 0 -6 8 -9 18 -7 9 1 23
-3 31 -9 12 -9 13 -7 8 9 -6 16 -3 15 13 -5 11 -14 18 -18 15 -9 -5 13 2 14
52 8 32 -3 62 -4 67 -1 5 3 6 -3 2 -13 -5 -15 -4 -16 8 -6 8 7 20 10 26 6 5
-3 10 0 10 7 0 9 3 10 8 2 4 -6 19 -10 35 -8 15 1 25 -2 22 -7 -4 -5 4 -5 19
1 19 7 26 6 26 -3 0 -8 4 -7 10 3 9 13 10 13 10 0 0 -13 1 -13 10 0 9 13 10
13 10 0 0 -13 1 -13 10 0 8 13 14 8 12 -11 -1 -3 5 -6 13 -6 8 0 11 7 7 16 -5
13 -3 14 10 4 8 -7 18 -10 21 -6 4 3 7 0 7 -7 0 -9 5 -7 16 6 8 10 12 13 8 5
-5 -11 -1 -12 20 -7 15 4 32 3 39 -1 17 -10 47 -11 53 -1 3 5 12 4 20 -3 11
-9 17 -9 28 0 11 9 15 9 18 -1 4 -10 8 -10 21 1 14 11 17 11 17 0 0 -10 3 -10
12 -1 16 16 31 15 22 -1 -6 -9 -5 -9 7 0 11 9 19 9 26 2 8 -8 15 -6 24 4 12
12 15 12 26 -2 11 -13 12 -13 8 -1 -5 13 7 15 76 14 50 -1 76 2 68 7 -8 5 -9
9 -3 9 5 0 15 -5 21 -11 8 -8 13 -8 17 0 10 15 29 14 21 -2 -4 -6 0 -4 9 7 8
10 19 15 25 12 6 -4 20 -2 31 4 15 8 20 8 20 -1 0 -8 4 -8 15 1 8 7 15 9 15 6
0 -4 8 -2 18 3 11 6 24 6 32 1 10 -6 23 -4 38 6 12 8 27 12 31 9 5 -3 12 1 14
7 4 10 6 10 6 0 1 -10 6 -9 18 4 16 15 17 15 23 -2 6 -17 7 -17 12 2 4 15 13
20 34 19 16 -1 35 3 42 9 8 6 17 5 24 -2 9 -9 18 -6 35 10 18 17 26 19 32 10
6 -10 10 -10 20 2 7 8 22 13 33 11 12 -3 28 1 37 8 12 10 13 9 6 -3 -8 -13 -7
-13 9 -1 15 13 19 13 27 0 7 -11 9 -10 9 5 0 11 3 16 7 13 3 -4 13 -1 21 6 11
8 13 8 9 0 -5 -7 0 -9 13 -6 11 3 20 13 20 22 0 14 2 14 11 1 8 -11 12 -12 16
-2 7 17 50 15 57 -4 3 -8 2 -12 -4 -9 -6 3 -10 1 -10 -4 0 -6 7 -11 15 -11 9
0 12 -6 9 -15 -4 -9 4 -24 17 -36 13 -11 18 -18 12 -14 -7 3 -13 2 -13 -3 0
-6 7 -13 16 -16 9 -4 14 -13 10 -21 -3 -9 0 -15 10 -15 8 0 22 -7 30 -15 9 -8
13 -15 10 -15 -3 0 2 -8 12 -18 9 -9 26 -28 37 -42 37 -46 125 -106 148 -102
4 1 7 -3 7 -9 0 -6 7 -9 15 -5 8 3 15 0 15 -6 0 -6 2 -9 6 -6 3 3 46 -5 97
-19 118 -31 176 -42 262 -49 47 -4 74 -11 83 -22 11 -14 12 -14 12 2 0 13 4
15 16 8 20 -11 54 -4 54 12 0 6 7 2 15 -8 13 -18 20 -15 16 7 -1 10 22 4 31
-8 5 -6 8 -5 8 4 0 7 6 11 15 7 8 -3 15 0 15 6 0 7 7 3 15 -8 11 -14 14 -15 9
-3 -3 10 -1 20 5 24 6 3 11 0 11 -7 0 -9 3 -9 10 2 5 8 10 11 10 6 0 -4 12 -1
26 9 15 9 23 12 20 6 -4 -6 -2 -11 3 -11 6 0 11 3 11 8 0 4 11 12 25 19 15 6
22 7 19 1 -4 -6 3 -5 15 1 11 7 21 17 21 24 0 7 4 6 10 -3 8 -13 10 -12 10 3
0 9 5 17 11 17 5 0 7 -4 4 -10 -3 -6 1 -7 9 -4 9 3 13 10 10 15 -3 5 2 9 10 9
9 0 16 5 16 12 0 6 3 8 7 5 3 -4 12 1 20 11 10 11 12 12 8 2 -4 -9 0 -7 9 4 8
10 18 16 23 13 4 -3 14 1 21 9 7 8 10 14 7 14 -3 0 3 8 13 18 9 11 20 17 25
15 4 -2 7 3 7 12 0 12 5 15 16 11 11 -4 15 -2 11 8 -3 8 1 17 9 20 8 3 14 12
14 20 0 9 9 20 20 26 11 6 18 15 15 21 -4 5 -1 9 4 9 6 0 10 6 9 13 -2 6 3 11
11 9 12 -3 12 -1 0 14 -12 16 -12 17 2 12 12 -5 15 -1 13 18 -1 13 2 24 7 24
6 0 7 4 4 10 -3 5 -1 10 5 10 6 0 8 5 5 10 -4 6 -1 18 7 27 11 14 11 16 -2 8
-11 -6 -10 -3 3 12 9 11 14 22 11 26 -8 8 -11 76 -3 71 10 -6 6 18 -6 36 -11
17 -15 51 -5 45 4 -2 7 2 7 10 0 8 -3 12 -7 10 -3 -2 -11 10 -17 26 -11 28
-10 29 5 17 16 -12 16 -11 0 7 -9 11 -18 27 -20 35 -2 8 -9 21 -15 28 -16 16
-17 32 -2 32 5 0 7 5 3 12 -5 8 0 9 15 5 13 -3 20 -3 17 0 -8 8 35 44 45 37 5
-3 9 2 9 11 0 9 5 13 10 10 6 -3 10 1 10 10 0 9 13 31 29 48 81 87 100 111 95
118 -3 5 3 6 12 2 13 -5 15 -3 9 8 -8 12 -6 12 8 0 12 -9 17 -10 17 -2 0 7 5
9 11 5 6 -3 15 0 20 7 7 11 9 11 9 1 0 -7 5 -10 10 -7 6 4 7 11 4 17 -5 7 -2
9 7 6 9 -4 19 4 26 18 6 13 7 22 2 18 -5 -3 -9 9 -9 27 0 26 -2 30 -15 19 -12
-10 -13 -8 -10 10 2 12 9 28 15 34 5 7 7 16 3 19 -3 4 -1 7 5 7 7 0 11 3 11 8
-1 4 0 9 1 12 3 9 10 44 12 63 1 9 5 17 9 17 5 0 10 39 10 83 0 9 3 15 7 13 4
-2 7 13 7 35 0 21 4 39 8 39 5 0 3 7 -4 17 -11 13 -11 17 -1 20 6 3 10 8 7 13
-7 11 32 23 46 14 8 -4 9 -3 5 4 -4 7 -2 12 4 12 6 0 8 5 4 11 -4 8 1 9 16 4
14 -4 20 -3 16 3 -6 9 21 27 36 24 5 -1 7 4 5 11 -1 6 4 11 11 9 8 -1 11 2 7
7 -3 6 3 18 14 28 19 16 20 18 3 37 -9 11 -11 16 -5 12 9 -5 11 -2 7 8 -3 9
-12 16 -20 16 -8 0 -14 8 -14 18 0 14 -2 15 -10 2 -9 -14 -14 -7 -11 15 1 6
-6 1 -14 -9 -11 -14 -15 -16 -15 -5 0 12 -2 12 -10 -1 -8 -13 -11 -12 -25 5
-9 11 -13 14 -10 7 5 -10 2 -13 -11 -10 -11 2 -18 8 -17 14 1 5 -8 10 -20 11
-44 4 -57 10 -84 33 -16 13 -30 24 -33 25 -3 0 -4 4 -2 9 2 5 -5 3 -14 -5 -16
-12 -17 -12 -11 3 3 9 1 19 -6 22 -9 3 -8 8 3 15 12 8 12 11 1 11 -11 0 -11 3
0 16 10 13 10 17 -2 25 -12 7 -12 10 0 18 8 5 9 11 3 15 -11 7 -11 24 1 44 5
6 4 12 0 12 -10 0 -10 41 1 58 4 7 3 12 -2 12 -6 0 -13 7 -16 16 -3 8 -2 13 3
10 5 -3 12 1 15 10 3 8 2 12 -4 9 -9 -5 -12 1 -9 21 0 4 -5 11 -13 15 -7 5 -8
9 -3 9 6 0 11 9 11 20 0 11 -5 19 -11 16 -7 -2 -11 7 -10 25 1 17 -2 26 -8 22
-6 -4 -8 0 -4 9 3 9 -2 26 -10 39 -13 17 -13 20 -2 14 8 -5 5 2 -6 15 -18 21
-18 23 -2 17 11 -4 16 -3 12 3 -3 6 -13 10 -21 10 -12 0 -19 26 -15 53 0 4 -6
7 -15 7 -11 0 -14 6 -9 21 5 15 4 19 -4 15 -7 -5 -11 1 -11 14 0 12 -4 18 -10
15 -9 -6 -14 16 -13 53 1 10 -2 10 -13 1 -12 -10 -13 -9 -8 5 4 11 1 16 -10
16 -9 0 -16 5 -16 11 0 5 4 7 10 4 6 -3 7 1 4 9 -3 9 -10 16 -15 16 -5 0 -9 6
-9 14 0 8 -7 17 -16 20 -10 4 -14 12 -10 22 4 11 2 15 -8 11 -9 -4 -17 2 -21
13 -3 11 -20 33 -36 50 -19 18 -25 30 -16 30 8 0 22 10 33 23 19 22 19 22 -2
7 -11 -8 -7 -3 8 11 15 14 28 31 28 37 0 6 8 16 18 21 9 6 13 11 8 11 -6 0 -1
7 10 16 10 8 13 13 7 9 -9 -4 -11 -1 -7 9 3 9 11 13 18 9 6 -4 6 0 -2 9 -10
13 -10 18 -1 24 8 5 9 3 4 -6 -5 -9 -4 -11 4 -6 7 5 9 16 5 28 -5 16 -3 20 8
15 9 -3 15 1 15 9 0 8 -5 14 -11 14 -6 0 -3 5 7 11 12 7 16 17 11 31 -3 11 -2
18 2 15 5 -3 16 2 24 11 13 14 12 15 -4 9 -16 -6 -17 -5 -6 8 7 8 9 15 4 15
-5 0 -1 5 8 11 10 5 15 16 12 24 -4 8 -1 15 6 15 9 0 10 3 1 14 -8 10 -8 16 2
25 8 6 17 7 22 3 4 -4 2 3 -4 16 -11 20 -8 26 10 24 3 -1 6 5 6 13 0 8 -5 11
-11 8 -6 -4 -5 1 3 10 7 9 10 17 5 17 -5 0 -2 5 6 10 13 8 13 10 1 10 -11 0
-10 4 5 16 10 8 13 13 7 9 -18 -9 -16 3 2 22 12 12 13 18 4 29 -9 11 -8 14 2
14 12 0 12 2 1 9 -11 7 -11 9 1 14 10 4 13 13 10 28 -4 15 -3 20 5 15 8 -5 10
-2 6 9 -4 8 0 22 7 31 10 13 10 17 -2 25 -8 5 -9 9 -3 9 7 0 15 7 18 16 3 8 2
12 -4 9 -6 -3 -10 -1 -10 4 0 6 5 11 12 11 9 0 9 3 1 11 -9 9 -8 15 3 26 9 9
11 20 6 27 -10 14 -10 27 2 45 6 10 5 12 -2 7 -15 -9 -15 -1 -1 26 6 11 7 18
2 15 -4 -3 -9 17 -10 44 -1 28 3 47 8 44 5 -4 6 1 3 9 -3 9 -11 13 -18 10 -6
-3 -2 2 8 10 11 9 14 16 8 16 -8 0 -11 10 -9 28 2 15 0 35 -5 46 -7 13 -7 16
1 12 15 -10 14 7 -1 22 -7 7 -8 12 -2 12 6 0 11 7 11 15 0 8 -4 12 -9 9 -4 -3
-8 0 -8 5 0 6 5 11 12 11 6 0 3 7 -8 16 -10 8 -12 12 -4 8 12 -6 13 -4 3 7 -7
7 -13 20 -13 28 0 8 -8 24 -17 35 -17 20 -17 20 0 7 17 -13 17 -13 6 12 -7 15
-15 27 -19 27 -4 0 -10 9 -13 20 -3 11 -1 18 4 14 15 -9 10 3 -8 22 -10 9 -18
29 -19 43 -1 14 -2 26 -4 26 -1 0 -3 14 -4 32 -1 18 1 30 6 27 4 -3 8 0 8 5 0
6 -5 11 -11 11 -8 0 -8 5 1 15 10 12 10 15 -1 15 -11 0 -11 2 1 10 10 6 11 10
3 10 -7 0 -13 9 -13 19 0 11 -5 23 -12 27 -8 5 -9 2 -5 -9 5 -14 3 -15 -13 -5
-10 7 -16 16 -14 20 3 4 0 8 -5 8 -6 0 -11 -3 -11 -7 0 -5 -11 -8 -24 -8 -13
0 -22 3 -19 8 2 4 -1 7 -6 7 -6 0 -11 -4 -11 -8 0 -7 -33 -8 -50 -2 -3 1 -13
1 -24 0 -13 -1 -16 2 -10 12 6 10 4 10 -9 -1 -13 -11 -23 -11 -41 -3 -17 7
-27 7 -35 -1 -8 -8 -11 -8 -11 2 0 7 -5 9 -12 4 -19 -11 -58 -11 -65 0 -3 5
-9 3 -14 -4 -7 -12 -9 -12 -9 0 0 10 -3 11 -14 2 -10 -8 -16 -9 -21 -1 -3 5
-11 10 -16 10 -6 0 -7 -5 -3 -11 3 -6 -5 -3 -20 6 -19 13 -26 14 -26 4 0 -10
-3 -10 -12 -1 -14 14 -32 16 -24 3 4 -5 -3 -7 -14 -4 -11 3 -17 9 -14 14 3 5
-6 5 -20 -1 -14 -5 -26 -6 -26 -1 0 10 -31 8 -49 -4 -10 -6 -12 -4 -6 5 6 10
4 12 -8 7 -9 -3 -19 -2 -22 3 -3 5 -13 6 -21 3 -9 -3 -20 0 -25 8 -7 12 -9 12
-9 -1 0 -13 -1 -13 -10 0 -9 13 -10 13 -10 0 0 -13 -2 -13 -9 -1 -6 10 -25 15
-55 14 -26 -1 -44 2 -42 6 3 4 -4 7 -14 7 -10 0 -17 -3 -15 -6 2 -3 -14 -5
-36 -5 -21 0 -39 4 -39 8 0 5 -7 4 -15 -3 -8 -7 -15 -8 -15 -3 0 11 -29 11
-48 -1 -7 -4 -12 -2 -12 6 0 10 -2 10 -8 1 -4 -7 -29 -13 -55 -14 -30 -2 -44
-6 -40 -13 4 -6 0 -5 -9 2 -13 10 -17 10 -21 0 -4 -11 -6 -11 -6 0 -1 10 -6
10 -21 2 -11 -6 -25 -8 -30 -5 -6 3 -10 1 -10 -5 0 -8 -6 -8 -20 0 -11 6 -20
7 -19 3 3 -20 -2 -27 -11 -13 -7 12 -12 12 -29 -4 -11 -10 -25 -15 -30 -11 -6
3 -11 1 -11 -6 0 -8 -4 -8 -15 1 -12 10 -15 10 -15 -4 0 -9 -5 -16 -11 -16 -5
0 -7 4 -4 10 3 6 -1 7 -9 4 -9 -3 -14 -9 -12 -13 2 -3 -6 -7 -17 -8 -33 -3
-51 -8 -64 -16 -6 -4 -15 -2 -18 4 -5 7 -15 3 -30 -11 -13 -12 -28 -19 -34
-15 -6 3 -14 -1 -17 -10 -6 -13 -8 -14 -15 -3 -7 10 -9 10 -9 1 0 -7 -7 -13
-16 -13 -8 0 -12 -5 -9 -11 4 -6 1 -10 -6 -8 -26 3 -40 -1 -35 -10 3 -5 -1
-12 -10 -15 -8 -3 -13 -2 -10 2 3 5 -1 9 -8 9 -8 0 -12 -6 -9 -14 3 -7 0 -13
-6 -13 -5 0 -19 -10 -30 -21 -11 -12 -26 -19 -34 -16 -9 3 -14 -1 -13 -11 0
-9 -5 -16 -12 -14 -8 1 -11 -2 -7 -8 3 -5 2 -10 -3 -10 -5 0 -14 -10 -20 -22
-6 -13 -11 -17 -11 -10 -1 7 -6 10 -11 7 -6 -4 -8 -11 -5 -16 4 -5 1 -9 -5 -9
-6 0 -8 -5 -4 -12 5 -8 2 -9 -9 -5 -9 3 -16 3 -15 -1 4 -14 -23 -53 -33 -47
-5 4 -9 1 -9 -6 0 -6 -8 -18 -17 -26 -12 -10 -13 -12 -3 -8 8 4 3 -4 -12 -17
-16 -13 -28 -29 -28 -35 0 -6 -7 -13 -15 -17 -8 -3 -14 -11 -13 -18 2 -7 -3
-12 -10 -10 -8 1 -11 -2 -7 -8 4 -6 -1 -18 -11 -26 -11 -9 -13 -13 -7 -9 9 4
11 1 7 -9 -3 -9 -9 -14 -13 -12 -3 2 -6 -15 -5 -37 0 -23 -6 -53 -13 -67 -7
-14 -13 -20 -13 -13 0 7 -7 10 -15 7 -11 -5 -13 -2 -9 11 6 15 4 16 -14 6 -17
-9 -22 -9 -22 0 0 6 -7 9 -15 5 -10 -3 -15 1 -15 12 0 15 -2 15 -10 2 -6 -10
-10 -11 -10 -2 0 6 -5 12 -11 12 -5 0 -7 -6 -3 -12 5 -9 3 -9 -9 1 -9 7 -14
18 -10 25 4 6 -1 5 -10 -3 -14 -11 -20 -11 -32 -1 -8 7 -15 9 -15 4 0 -5 -5
-1 -11 9 -6 10 -15 14 -22 10 -18 -11 -37 -12 -37 -2 0 5 -14 7 -30 5 -17 -2
-33 1 -37 7 -4 6 -1 7 7 2 9 -5 11 -4 6 3 -4 7 -15 8 -29 3 -15 -6 -29 -4 -42
5 -15 11 -20 11 -27 1 -5 -8 -8 -9 -8 0 0 7 -11 9 -30 7 -16 -3 -30 -1 -30 4
0 6 -7 13 -16 16 -8 3 -12 2 -9 -3 3 -5 1 -12 -5 -16 -5 -3 -10 -1 -10 4 0 6
-10 11 -22 11 -78 -1 -125 4 -137 14 -12 9 -13 8 -7 -3 7 -10 3 -12 -14 -6
-15 5 -20 4 -16 -4 5 -7 1 -9 -8 -5 -9 3 -13 11 -9 18 5 7 2 7 -8 -1 -18 -14
-61 -13 -71 2 -5 6 -8 1 -8 -10 0 -17 -2 -17 -10 -5 -9 13 -10 13 -10 0 0 -12
-2 -12 -9 -2 -7 11 -9 10 -15 -3 -3 -10 -11 -13 -18 -9 -18 11 -48 12 -42 2 8
-13 -29 -6 -38 7 -4 6 -8 2 -8 -9 0 -15 -3 -16 -14 -7 -10 8 -16 9 -21 1 -3
-6 -10 -8 -15 -5 -4 3 -11 -3 -14 -12 -5 -12 -10 -13 -18 -5 -8 8 -15 7 -25
-6 -8 -9 -12 -11 -8 -5 4 9 1 11 -9 7 -9 -3 -16 -10 -16 -15 0 -6 -8 -5 -19 1
-16 8 -22 6 -30 -7 -8 -14 -10 -15 -11 -3 0 13 -2 13 -9 1 -5 -8 -16 -11 -26
-8 -11 5 -14 3 -9 -5 5 -8 2 -9 -9 -5 -9 3 -19 2 -22 -3 -4 -6 -11 -10 -16
-10 -6 0 -7 6 -3 13 5 8 2 7 -10 -2 -14 -12 -19 -12 -29 -1 -10 10 -9 11 3 6
8 -4 7 -1 -3 7 -14 11 -15 16 -5 20 10 4 10 6 1 6 -7 1 -13 8 -13 16 0 8 -6
15 -12 15 -9 0 -8 4 2 10 13 8 12 10 -4 10 -12 0 -16 5 -12 15 3 8 -3 20 -14
28 -11 8 -17 17 -12 22 4 4 -2 5 -12 1 -15 -5 -17 -4 -7 8 9 11 8 15 -4 20
-11 4 -14 2 -9 -6 4 -7 3 -8 -4 -4 -7 4 -12 13 -12 19 0 7 -9 19 -19 27 -11 7
-18 17 -15 22 3 4 0 8 -6 8 -15 0 -40 25 -40 40 0 6 -4 8 -10 5 -5 -3 -10 -1
-10 5 0 6 -5 8 -12 4 -9 -5 -9 -2 1 9 12 15 11 17 -8 17 -13 0 -21 6 -21 18 0
13 -2 14 -9 4 -6 -11 -9 -9 -13 6 -3 11 -16 25 -28 32 -15 8 -20 8 -16 1 4 -6
5 -11 2 -11 -3 0 -13 12 -21 28 -9 15 -14 19 -11 9 4 -11 -9 -3 -33 20 -21 21
-36 41 -34 45 2 4 -2 5 -10 2 -17 -6 -70 39 -60 50 4 4 0 4 -10 0 -12 -4 -25
2 -42 20 -16 17 -30 24 -41 19 -12 -4 -15 -3 -10 5 4 7 1 12 -8 12 -9 0 -16 5
-16 11 0 5 -4 7 -10 4 -5 -3 -10 -1 -10 5 0 6 -4 9 -9 6 -4 -3 -17 2 -27 10
-10 9 -13 12 -5 8 10 -5 12 -3 7 5 -6 9 -11 9 -21 1 -9 -8 -14 -6 -19 6 -3 9
-13 14 -21 10 -8 -3 -17 0 -21 6 -5 7 -2 8 6 3 8 -5 11 -4 6 3 -4 6 -13 9 -21
5 -8 -3 -15 0 -15 7 0 7 -8 10 -20 7 -13 -3 -20 0 -20 10 0 8 -4 12 -9 9 -4
-3 -17 1 -27 8 -13 10 -23 11 -31 4 -9 -7 -13 -7 -13 1 0 6 -7 11 -15 11 -8 0
-15 6 -15 13 0 8 -3 7 -10 -3 -8 -12 -10 -12 -16 3 -3 9 -10 17 -16 17 -5 0
-6 -4 -3 -10 3 -6 -1 -7 -9 -4 -9 3 -16 11 -16 17 0 6 -3 7 -7 4 -3 -4 -16 1
-27 10 -20 17 -20 17 -6 -1 14 -18 14 -19 -6 -8 -12 6 -24 8 -28 5 -3 -3 -6
-2 -6 4 0 6 -7 14 -16 17 -8 3 -12 2 -9 -4 3 -6 1 -10 -4 -10 -6 0 -11 5 -11
11 0 6 -7 9 -15 5 -8 -3 -15 -2 -15 3 0 4 -10 7 -22 6 -13 -2 -34 4 -47 12
-18 12 -22 12 -16 2 5 -8 -2 -5 -14 5 -22 20 -22 20 -15 0 7 -17 6 -17 -9 -5
-9 7 -17 10 -17 6 0 -5 -10 0 -22 11 -17 14 -19 15 -9 2 12 -16 10 -16 -18 -8
-17 5 -31 6 -31 3 0 -3 -6 -1 -13 5 -8 7 -18 7 -27 2 -8 -5 -21 -5 -31 1 -11
6 -20 5 -24 -1 -3 -5 -16 -6 -28 -2 -20 7 -64 8 -77 2 -14 -5 -58 -5 -54 1 2
4 -7 6 -20 5 -13 0 -22 -4 -19 -8 2 -5 -1 -8 -6 -8 -6 0 -11 5 -11 10 0 6 -5
10 -11 10 -5 0 -7 -5 -3 -11 4 -7 -1 -7 -16 1 -15 8 -20 8 -16 1 5 -7 -1 -10
-16 -7 -13 2 -31 -1 -42 -6 -12 -7 -16 -7 -12 0 3 5 -1 13 -10 16 -9 4 -13 2
-8 -5z m3714 -269 c0 -5 -5 -10 -11 -10 -5 0 -7 5 -4 10 3 6 8 10 11 10 2 0 4
-4 4 -10z m-3899 -1547 c13 -16 12 -17 -3 -4 -10 7 -18 15 -18 17 0 8 8 3 21
-13z m-391 -2073 c0 -5 -5 -10 -11 -10 -5 0 -7 5 -4 10 3 6 8 10 11 10 2 0 4
-4 4 -10z m3870 -514 c0 -3 -4 -8 -10 -11 -5 -3 -10 -1 -10 4 0 6 5 11 10 11
6 0 10 -2 10 -4z"/>
<path d="M3220 5486 c0 -2 7 -6 15 -10 8 -3 15 -1 15 4 0 6 -7 10 -15 10 -8 0
-15 -2 -15 -4z"/>
<path d="M7346 2918 c3 -5 10 -6 15 -3 13 9 11 12 -6 12 -8 0 -12 -4 -9 -9z"/>
<path d="M1454 2124 c-18 -14 -18 -15 4 -4 12 6 22 13 22 15 0 8 -5 6 -26 -11z"/>
<path d="M1225 1800 c-3 -5 -1 -10 4 -10 6 0 11 5 11 10 0 6 -2 10 -4 10 -3 0
-8 -4 -11 -10z"/>
<path d="M7045 1700 c-3 -5 -1 -10 4 -10 6 0 11 5 11 10 0 6 -2 10 -4 10 -3 0
-8 -4 -11 -10z"/>
<path d="M5235 1420 c-3 -5 -1 -10 4 -10 6 0 11 5 11 10 0 6 -2 10 -4 10 -3 0
-8 -4 -11 -10z"/>
<path d="M1350 1296 c0 -2 8 -10 18 -17 15 -13 16 -12 3 4 -13 16 -21 21 -21
13z"/>
</g>
</svg>
