<svg width="27" height="27" viewBox="0 0 27 27" fill="none" xmlns="http://www.w3.org/2000/svg">
<path d="M25.3309 10.2251C24.8523 9.74052 24.3614 9.24416 24.165 8.78325C23.9686 8.32234 23.9686 7.71961 23.9564 7.04598C23.9441 5.94689 23.9195 4.68234 23.0482 3.84325C22.1768 3.00416 20.8636 2.98052 19.7223 2.9687C19.0227 2.95689 18.36 2.94507 17.9182 2.7678C17.4764 2.59052 16.9241 2.10598 16.4209 1.64507C15.6109 0.888705 14.6782 0.037796 13.5 0.037796C12.3218 0.037796 11.3891 0.888705 10.5791 1.64507C10.0759 2.10598 9.56045 2.5787 9.08182 2.7678C8.60318 2.95689 7.97727 2.95689 7.27773 2.9687C6.13636 2.98052 4.82318 3.00416 3.95182 3.84325C3.08045 4.68234 3.05591 5.94689 3.04364 7.04598C3.03136 7.71961 3.01909 8.3578 2.835 8.78325C2.65091 9.20871 2.14773 9.74052 1.66909 10.2251C0.883636 11.0051 0 11.9033 0 13.0378C0 14.1723 0.883636 15.0705 1.66909 15.8505C2.14773 16.3351 2.63864 16.8314 2.835 17.2923C3.03136 17.7533 3.03136 18.356 3.04364 19.0296C3.05591 20.1287 3.08045 21.3933 3.95182 22.2323C4.82318 23.0714 6.13636 23.0951 7.27773 23.1069C7.97727 23.1187 8.64 23.1305 9.08182 23.3078C9.52364 23.4851 10.0759 23.9696 10.5791 24.4305C11.3891 25.1869 12.3218 26.0378 13.5 26.0378C14.6782 26.0378 15.6109 25.1869 16.4209 24.4305C16.9241 23.9696 17.4395 23.4969 17.9182 23.3078C18.3968 23.1187 19.0227 23.1187 19.7223 23.1069C20.8636 23.0951 22.1768 23.0714 23.0482 22.2323C23.9195 21.3933 23.9441 20.1287 23.9564 19.0296C23.9686 18.356 23.9809 17.7178 24.165 17.2923C24.3491 16.8669 24.8523 16.3351 25.3309 15.8505C26.1164 15.0705 27 14.1723 27 13.0378C27 11.9033 26.1164 11.0051 25.3309 10.2251ZM24.2755 14.8696C23.6986 15.4487 23.1095 16.0396 22.8027 16.7487C22.4959 17.4578 22.4959 18.226 22.4836 19.006C22.4714 19.786 22.4591 20.7905 22.005 21.2278C21.5509 21.6651 20.6059 21.6769 19.6977 21.6887C18.7895 21.7005 18.0532 21.7123 17.3536 21.996C16.6541 22.2796 16.0036 22.8587 15.4023 23.4142C14.8009 23.9696 14.0891 24.6196 13.5 24.6196C12.9109 24.6196 12.2482 24.0051 11.5977 23.4142C10.9473 22.8233 10.3827 22.2914 9.64636 21.996C8.91 21.7005 8.11227 21.7005 7.30227 21.6887C6.49227 21.6769 5.44909 21.6651 4.995 21.2278C4.54091 20.7905 4.52864 19.8805 4.51636 19.006C4.50409 18.1314 4.49182 17.4223 4.19727 16.7487C3.90273 16.0751 3.30136 15.4487 2.72455 14.8696C2.14773 14.2905 1.47273 13.6051 1.47273 13.0378C1.47273 12.4705 2.11091 11.8323 2.72455 11.206C3.33818 10.5796 3.89045 10.036 4.19727 9.32689C4.50409 8.6178 4.50409 7.84961 4.51636 7.06961C4.52864 6.28961 4.54091 5.28507 4.995 4.8478C5.44909 4.41052 6.39409 4.3987 7.30227 4.38689C8.21045 4.37507 8.94682 4.36325 9.64636 4.07961C10.3459 3.79598 10.9964 3.21689 11.5977 2.66143C12.1991 2.10598 12.9109 1.45598 13.5 1.45598C14.0891 1.45598 14.7518 2.07052 15.4023 2.66143C16.0527 3.25234 16.6173 3.78416 17.3536 4.07961C18.09 4.37507 18.8877 4.37507 19.6977 4.38689C20.5077 4.3987 21.5509 4.41052 22.005 4.8478C22.4591 5.28507 22.4714 6.19507 22.4836 7.06961C22.4959 7.94416 22.5082 8.65325 22.8027 9.32689C23.0973 10.0005 23.6986 10.6269 24.2755 11.206C24.8523 11.7851 25.5273 12.4705 25.5273 13.0378C25.5273 13.6051 24.8891 14.2433 24.2755 14.8696ZM19.4277 9.71689C19.4944 9.7833 19.5467 9.86183 19.5817 9.94788C19.6166 10.0339 19.6334 10.1258 19.6311 10.2182C19.6288 10.3106 19.6075 10.4016 19.5684 10.4859C19.5292 10.5703 19.4731 10.6463 19.4032 10.7096L12.2114 17.3278C12.0714 17.454 11.8877 17.5256 11.6959 17.5287C11.5072 17.5286 11.3262 17.4564 11.1927 17.3278L7.59682 14.0187C7.45686 13.8902 7.37564 13.7134 7.37104 13.5272C7.36643 13.3411 7.43882 13.1608 7.57227 13.026C7.70572 12.8912 7.88931 12.813 8.08264 12.8086C8.27598 12.8041 8.46322 12.8738 8.60318 13.0023L11.6959 15.8387L18.3968 9.69325C18.4658 9.62902 18.5473 9.57864 18.6367 9.54502C18.7261 9.5114 18.8215 9.49522 18.9174 9.49742C19.0133 9.49962 19.1078 9.52015 19.1954 9.55783C19.283 9.5955 19.362 9.64957 19.4277 9.71689Z" fill="#CCAA6B"/>
</svg>
